{"glyphs":{"0":{"ha":647,"x_min":0,"x_max":0,"o":"m 324 972 b 18 708 169 972 33 858 l 18 504 l 629 504 l 629 708 b 324 972 614 858 478 972 z m 18 243 b 324 -21 33 93 169 -21 b 629 243 478 -21 614 93 l 629 468 l 18 468 z "},"1":{"ha":647,"x_min":0,"x_max":0,"o":"m 18 468 l 18 0 l 629 0 l 629 468 z m 157 504 l 463 504 l 463 972 b 157 708 308 972 172 858 z "},"2":{"ha":653,"x_min":0,"x_max":0,"o":"m 635 0 l 635 300 l 18 300 l 18 0 z m 18 336 l 326 336 b 635 636 493 336 629 469 l 326 636 b 18 336 160 636 24 503 z m 18 672 l 635 672 b 326 972 629 839 493 972 b 18 672 160 972 24 839 z "},"3":{"ha":742,"x_min":0,"x_max":0,"o":"m 724 300 l 107 300 b 415 0 113 133 249 0 b 724 300 582 0 718 133 z m 10 972 b 318 672 15 806 151 672 l 626 672 b 318 972 621 839 485 972 z m 107 636 b 415 336 113 469 249 336 l 724 336 b 415 636 718 503 582 636 z "},"4":{"ha":783,"x_min":0,"x_max":0,"o":"m 147 300 l 149 0 l 592 0 l 592 300 z m 10 336 l 774 336 l 774 636 l 315 636 b 10 336 156 635 24 496 z m 147 651 b 453 915 301 651 438 765 l 453 972 l 147 972 z "},"5":{"ha":653,"x_min":0,"x_max":0,"o":"m 567 672 l 567 972 l 18 972 l 18 672 z m 18 300 b 326 0 24 133 160 0 b 635 300 493 0 629 133 z m 18 635 b 326 336 24 468 160 336 l 635 336 b 326 636 629 503 493 636 z "},"6":{"ha":653,"x_min":0,"x_max":0,"o":"m 326 336 l 635 338 b 326 636 629 504 493 636 l 18 636 l 18 336 z m 18 300 b 326 0 24 133 160 0 b 635 300 493 0 629 133 z m 18 674 l 326 672 l 450 672 l 450 972 l 326 972 b 18 674 160 972 24 840 z "},"7":{"ha":647,"x_min":0,"x_max":0,"o":"m 629 768 l 629 972 l 18 972 l 18 504 l 324 504 b 629 768 478 504 629 615 z m 229 0 l 535 0 l 535 489 b 229 225 381 489 229 375 z "},"8":{"ha":713,"x_min":0,"x_max":0,"o":"m 18 336 l 694 336 b 383 636 688 501 553 633 l 329 636 b 18 336 160 636 25 503 z m 18 300 b 329 0 25 136 160 0 l 383 0 b 694 300 553 -1 688 135 z m 150 672 l 558 672 l 558 796 b 354 972 547 896 457 972 b 150 796 253 971 161 896 z "},"9":{"ha":644,"x_min":0,"x_max":0,"o":"m 318 636 l 10 635 b 318 336 15 468 151 336 l 626 336 l 626 636 z m 10 674 l 626 674 b 318 972 621 840 485 972 b 10 674 151 972 15 840 z m 194 0 l 318 0 b 626 299 485 0 621 132 l 318 300 l 194 300 z "},"\u0000":{"ha":278,"x_min":0,"x_max":0,"o":""}," ":{"ha":278,"x_min":0,"x_max":0,"o":""},"!":{"ha":336,"x_min":0,"x_max":0,"o":"m 18 300 l 18 0 l 318 0 l 318 300 z m 18 628 b 318 328 18 461 151 328 l 318 972 l 18 972 z "},"&":{"ha":1038,"x_min":0,"x_max":0,"o":"m 329 0 l 383 0 b 694 300 553 0 688 136 l 18 300 b 329 0 25 138 160 0 z m 18 336 l 713 336 b 1019 636 872 336 1006 476 l 325 636 b 18 336 165 636 32 496 z m 286 672 l 694 672 l 694 796 b 490 972 683 896 593 972 b 286 796 389 971 297 896 z m 708 0 l 1019 0 b 708 300 1013 165 878 297 z "},",":{"ha":336,"x_min":0,"x_max":0,"o":"m 18 300 l 18 -300 b 318 0 185 -300 318 -167 l 318 300 z "},"-":{"ha":636,"x_min":0,"x_max":0,"o":"m 18 632 l 18 332 l 618 332 l 618 632 z "},".":{"ha":336,"x_min":0,"x_max":0,"o":"m 18 300 l 18 0 l 318 0 l 318 300 z "},"/":{"ha":481,"x_min":0,"x_max":0,"o":"m 18 215 l 18 0 l 324 0 l 324 479 b 18 215 169 479 33 365 z m 157 493 b 463 757 311 493 447 607 l 463 972 l 157 972 z "},":":{"ha":336,"x_min":0,"x_max":0,"o":"m 18 636 l 18 336 l 318 336 l 318 636 z m 18 0 l 318 0 l 318 300 l 18 300 z "},";":{"ha":336,"x_min":0,"x_max":0,"o":"m 18 636 l 18 336 l 318 336 l 318 636 z m 18 -300 b 318 0 185 -300 318 -167 l 318 300 l 18 300 z "},"?":{"ha":772,"x_min":0,"x_max":0,"o":"m 157 300 l 157 0 l 457 0 l 457 300 z m 18 672 l 763 672 b 454 972 758 838 621 972 l 18 972 z m 157 336 l 454 336 b 761 636 614 336 747 476 l 464 636 b 157 336 304 636 171 496 z "},"A":{"ha":936,"x_min":0,"x_max":0,"o":"m 163 636 l 163 336 l 774 336 l 774 636 z m 18 0 l 450 0 l 450 300 l 18 300 z m 163 672 l 774 672 l 774 729 b 468 993 758 879 622 993 b 163 729 314 993 178 879 z m 486 0 l 918 0 l 918 300 l 486 300 z "},"a":{"ha":936,"x_min":0,"x_max":0,"o":"m 163 636 l 163 336 l 774 336 l 774 636 z m 18 0 l 450 0 l 450 300 l 18 300 z m 163 672 l 774 672 l 774 729 b 468 993 758 879 622 993 b 163 729 314 993 178 879 z m 486 0 l 918 0 l 918 300 l 486 300 z "},"B":{"ha":868,"x_min":0,"x_max":0,"o":"m 18 672 l 650 672 b 342 972 646 838 508 972 l 18 972 z m 18 0 l 547 0 b 858 301 717 0 851 136 l 18 301 z m 163 336 l 858 336 b 547 636 851 503 717 636 l 163 636 z "},"b":{"ha":868,"x_min":0,"x_max":0,"o":"m 18 672 l 650 672 b 342 972 646 838 508 972 l 18 972 z m 18 0 l 547 0 b 858 301 717 0 851 136 l 18 301 z m 163 336 l 858 336 b 547 636 851 503 717 636 l 163 636 z "},"C":{"ha":811,"x_min":0,"x_max":0,"o":"m 10 504 l 793 504 l 793 972 l 496 972 b 10 504 233 972 19 764 z m 10 468 b 496 0 19 208 233 0 l 793 0 l 793 468 z "},"c":{"ha":811,"x_min":0,"x_max":0,"o":"m 10 504 l 793 504 l 793 972 l 496 972 b 10 504 233 972 19 764 z m 10 468 b 496 0 19 208 233 0 l 793 0 l 793 468 z "},"D":{"ha":839,"x_min":0,"x_max":0,"o":"m 18 504 l 829 504 b 343 972 819 764 606 972 l 18 972 z m 18 0 l 343 0 b 829 468 606 0 819 208 l 18 468 z "},"d":{"ha":839,"x_min":0,"x_max":0,"o":"m 18 504 l 829 504 b 343 972 819 764 606 972 l 18 972 z m 18 0 l 343 0 b 829 468 606 0 819 208 l 18 468 z "},"E":{"ha":881,"x_min":0,"x_max":0,"o":"m 121 636 l 121 336 l 589 336 l 589 636 z m 18 0 l 863 0 l 863 300 l 18 300 z m 18 672 l 863 672 l 863 972 l 18 972 z "},"e":{"ha":881,"x_min":0,"x_max":0,"o":"m 121 636 l 121 336 l 589 336 l 589 636 z m 18 0 l 863 0 l 863 300 l 18 300 z m 18 672 l 863 672 l 863 972 l 18 972 z "},"F":{"ha":896,"x_min":0,"x_max":0,"o":"m 18 972 l 18 672 l 878 672 l 878 972 z m 18 300 l 19 0 l 536 0 l 536 300 z m 135 336 l 733 336 l 733 636 l 135 636 z "},"f":{"ha":896,"x_min":0,"x_max":0,"o":"m 18 972 l 18 672 l 878 672 l 878 972 z m 18 300 l 19 0 l 536 0 l 536 300 z m 135 336 l 733 336 l 733 636 l 135 636 z "},"G":{"ha":1000,"x_min":0,"x_max":0,"o":"m 10 504 l 982 504 b 496 972 972 764 758 972 b 10 504 233 972 19 764 z m 10 468 b 504 0 19 208 233 0 l 982 0 l 982 468 z "},"g":{"ha":1000,"x_min":0,"x_max":0,"o":"m 10 504 l 982 504 b 496 972 972 764 758 972 b 10 504 233 972 19 764 z m 10 468 b 504 0 19 208 233 0 l 982 0 l 982 468 z "},"H":{"ha":1011,"x_min":0,"x_max":0,"o":"m 163 636 l 163 336 l 849 336 l 849 636 z m 18 0 l 488 0 l 488 300 l 18 300 z m 18 672 l 488 672 l 488 972 l 18 972 z m 524 0 l 993 0 l 993 300 l 524 300 z m 524 672 l 993 672 l 993 972 l 524 972 z "},"h":{"ha":1011,"x_min":0,"x_max":0,"o":"m 163 636 l 163 336 l 849 336 l 849 636 z m 18 0 l 488 0 l 488 300 l 18 300 z m 18 672 l 488 672 l 488 972 l 18 972 z m 524 0 l 993 0 l 993 300 l 524 300 z m 524 672 l 993 672 l 993 972 l 524 972 z "},"I":{"ha":479,"x_min":0,"x_max":0,"o":"m 18 972 l 18 504 l 461 504 l 461 972 z m 18 0 l 461 0 l 461 468 l 18 468 z "},"i":{"ha":479,"x_min":0,"x_max":0,"o":"m 18 972 l 18 504 l 461 504 l 461 972 z m 18 0 l 461 0 l 461 468 l 18 468 z "},"J":{"ha":697,"x_min":0,"x_max":0,"o":"m 18 972 l 18 504 l 679 504 l 679 972 z m 18 0 l 257 0 b 563 264 411 0 547 114 l 563 468 l 18 468 z "},"j":{"ha":697,"x_min":0,"x_max":0,"o":"m 18 972 l 18 504 l 679 504 l 679 972 z m 18 0 l 257 0 b 563 264 411 0 547 114 l 563 468 l 18 468 z "},"K":{"ha":1025,"x_min":0,"x_max":0,"o":"m 18 972 l 18 672 l 488 672 l 488 972 z m 18 0 l 488 0 l 488 300 l 18 300 z m 163 336 l 925 336 l 925 372 b 619 636 925 521 774 636 l 163 636 z m 524 0 l 1007 0 l 1007 300 l 524 300 z m 524 672 l 1007 672 l 1007 989 l 829 989 b 524 708 675 989 524 861 z "},"k":{"ha":1025,"x_min":0,"x_max":0,"o":"m 18 972 l 18 672 l 488 672 l 488 972 z m 18 0 l 488 0 l 488 300 l 18 300 z m 163 336 l 925 336 l 925 372 b 619 636 925 521 774 636 l 163 636 z m 524 0 l 1007 0 l 1007 300 l 524 300 z m 524 672 l 1007 672 l 1007 989 l 829 989 b 524 708 675 989 524 861 z "},"L":{"ha":864,"x_min":0,"x_max":0,"o":"m 846 0 l 846 468 l 18 468 l 18 0 z m 18 504 l 461 504 l 461 972 l 18 972 z "},"l":{"ha":864,"x_min":0,"x_max":0,"o":"m 846 0 l 846 468 l 18 468 l 18 0 z m 18 504 l 461 504 l 461 972 l 18 972 z "},"M":{"ha":1358,"x_min":0,"x_max":0,"o":"m 163 504 l 647 504 l 647 708 b 342 972 632 861 496 972 l 163 972 z m 18 0 l 442 0 l 442 468 l 18 468 z m 478 0 l 881 0 l 881 468 l 478 468 z m 683 504 l 1196 504 l 1196 972 l 989 972 b 683 708 835 972 699 861 z m 917 0 l 1340 0 l 1340 468 l 917 468 z "},"m":{"ha":1358,"x_min":0,"x_max":0,"o":"m 163 504 l 647 504 l 647 708 b 342 972 632 861 496 972 l 163 972 z m 18 0 l 442 0 l 442 468 l 18 468 z m 478 0 l 881 0 l 881 468 l 478 468 z m 683 504 l 1196 504 l 1196 972 l 989 972 b 683 708 835 972 699 861 z m 917 0 l 1340 0 l 1340 468 l 917 468 z "},"N":{"ha":958,"x_min":0,"x_max":0,"o":"m 18 0 l 429 0 l 429 468 l 18 468 z m 18 504 l 493 504 l 493 708 b 188 972 478 861 342 972 l 18 972 z m 465 264 b 771 0 481 111 617 0 l 940 0 l 940 468 l 465 468 z m 529 504 l 940 504 l 940 972 l 529 972 z "},"n":{"ha":958,"x_min":0,"x_max":0,"o":"m 18 0 l 429 0 l 429 468 l 18 468 z m 18 504 l 493 504 l 493 708 b 188 972 478 861 342 972 l 18 972 z m 465 264 b 771 0 481 111 617 0 l 940 0 l 940 468 l 465 468 z m 529 504 l 940 504 l 940 972 l 529 972 z "},"O":{"ha":1033,"x_min":0,"x_max":0,"o":"m 10 504 l 1024 504 b 517 993 1024 757 788 993 b 10 504 272 993 29 825 z m 10 468 b 517 -21 24 193 246 -21 b 1024 468 811 -21 1024 215 z "},"o":{"ha":1033,"x_min":0,"x_max":0,"o":"m 10 504 l 1024 504 b 517 993 1024 757 788 993 b 10 504 272 993 29 825 z m 10 468 b 517 -21 24 193 246 -21 b 1024 468 811 -21 1024 215 z "},"P":{"ha":860,"x_min":0,"x_max":0,"o":"m 163 636 l 163 336 l 542 336 b 849 636 701 336 835 476 z m 18 0 l 529 0 l 529 300 l 18 300 z m 18 672 l 850 672 b 542 972 846 838 708 972 l 18 972 z "},"p":{"ha":860,"x_min":0,"x_max":0,"o":"m 163 636 l 163 336 l 542 336 b 849 636 701 336 835 476 z m 18 0 l 529 0 l 529 300 l 18 300 z m 18 672 l 850 672 b 542 972 846 838 708 972 l 18 972 z "},"Q":{"ha":1011,"x_min":0,"x_max":0,"o":"m 10 504 l 1001 504 b 506 993 997 774 776 993 b 10 504 235 993 14 774 z m 11 468 b 506 0 25 207 242 0 b 1000 468 769 0 986 207 z m 506 -14 b 811 -278 521 -164 657 -278 l 964 -278 l 964 -14 z "},"q":{"ha":1011,"x_min":0,"x_max":0,"o":"m 10 504 l 1001 504 b 506 993 997 774 776 993 b 10 504 235 993 14 774 z m 11 468 b 506 0 25 207 242 0 b 1000 468 769 0 986 207 z m 506 -14 b 811 -278 521 -164 657 -278 l 964 -278 l 964 -14 z "},"R":{"ha":1003,"x_min":0,"x_max":0,"o":"m 18 300 l 18 0 l 488 0 l 488 300 z m 18 672 l 883 672 b 575 972 879 838 742 972 l 18 972 z m 163 336 l 575 336 b 882 636 735 336 868 476 l 163 636 z m 522 264 b 826 -8 538 114 672 -8 l 985 -8 l 985 300 l 522 300 z "},"r":{"ha":1003,"x_min":0,"x_max":0,"o":"m 18 300 l 18 0 l 488 0 l 488 300 z m 18 672 l 883 672 b 575 972 879 838 742 972 l 18 972 z m 163 336 l 575 336 b 882 636 735 336 868 476 l 163 636 z m 522 264 b 826 -8 538 114 672 -8 l 985 -8 l 985 300 l 522 300 z "},"S":{"ha":794,"x_min":0,"x_max":0,"o":"m 18 672 l 776 672 l 776 972 l 326 972 b 18 672 160 972 22 838 z m 18 0 l 468 0 b 776 300 635 0 772 135 l 18 300 z m 19 636 b 326 336 33 476 167 336 l 775 336 b 468 636 761 496 628 636 z "},"s":{"ha":794,"x_min":0,"x_max":0,"o":"m 18 672 l 776 672 l 776 972 l 326 972 b 18 672 160 972 22 838 z m 18 0 l 468 0 b 776 300 635 0 772 135 l 18 300 z m 19 636 b 326 336 33 476 167 336 l 775 336 b 468 636 761 496 628 636 z "},"T":{"ha":1057,"x_min":0,"x_max":0,"o":"m 18 972 l 18 504 l 1039 504 l 1039 972 z m 307 0 l 750 0 l 750 468 l 307 468 z "},"t":{"ha":1057,"x_min":0,"x_max":0,"o":"m 18 972 l 18 504 l 1039 504 l 1039 972 z m 307 0 l 750 0 l 750 468 l 307 468 z "},"U":{"ha":936,"x_min":0,"x_max":0,"o":"m 18 972 l 18 504 l 450 504 l 450 972 z m 163 243 b 468 -21 178 93 314 -21 b 774 243 622 -21 758 93 l 774 468 l 163 468 z m 486 504 l 918 504 l 918 972 l 486 972 z "},"u":{"ha":936,"x_min":0,"x_max":0,"o":"m 18 972 l 18 504 l 450 504 l 450 972 z m 163 243 b 468 -21 178 93 314 -21 b 774 243 622 -21 758 93 l 774 468 l 163 468 z m 486 504 l 918 504 l 918 972 l 486 972 z "},"V":{"ha":972,"x_min":0,"x_max":0,"o":"m 265 468 l 265 0 l 708 0 l 708 468 z m 18 504 l 461 504 l 461 708 b 156 972 461 861 310 972 l 18 972 z m 511 504 l 954 504 l 954 972 l 817 972 b 511 708 663 972 511 861 z "},"v":{"ha":972,"x_min":0,"x_max":0,"o":"m 265 468 l 265 0 l 708 0 l 708 468 z m 18 504 l 461 504 l 461 708 b 156 972 461 861 310 972 l 18 972 z m 511 504 l 954 504 l 954 972 l 817 972 b 511 708 663 972 511 861 z "},"W":{"ha":1418,"x_min":0,"x_max":0,"o":"m 508 972 l 508 504 l 910 504 l 910 972 z m 29 504 l 472 504 l 472 708 b 167 972 457 861 321 972 l 29 972 z m 290 0 l 692 0 l 692 468 l 292 468 z m 726 0 l 1128 0 l 1128 468 l 728 468 z m 946 504 l 1389 504 l 1389 972 l 1251 972 b 946 708 1097 972 961 861 z "},"w":{"ha":1418,"x_min":0,"x_max":0,"o":"m 508 972 l 508 504 l 910 504 l 910 972 z m 29 504 l 472 504 l 472 708 b 167 972 457 861 321 972 l 29 972 z m 290 0 l 692 0 l 692 468 l 292 468 z m 726 0 l 1128 0 l 1128 468 l 728 468 z m 946 504 l 1389 504 l 1389 972 l 1251 972 b 946 708 1097 972 961 861 z "},"X":{"ha":958,"x_min":0,"x_max":0,"o":"m 18 504 l 461 504 l 461 708 b 156 972 446 861 310 972 l 18 972 z m 18 0 l 156 0 b 461 264 310 -3 446 111 l 461 468 l 18 468 z m 497 264 b 803 0 513 111 649 -3 l 940 0 l 940 468 l 497 468 z m 497 504 l 940 504 l 940 972 l 803 972 b 497 708 649 972 513 861 z "},"x":{"ha":958,"x_min":0,"x_max":0,"o":"m 18 504 l 461 504 l 461 708 b 156 972 446 861 310 972 l 18 972 z m 18 0 l 156 0 b 461 264 310 -3 446 111 l 461 468 l 18 468 z m 497 264 b 803 0 513 111 649 -3 l 940 0 l 940 468 l 497 468 z m 497 504 l 940 504 l 940 972 l 803 972 b 497 708 649 972 513 861 z "},"Y":{"ha":936,"x_min":0,"x_max":0,"o":"m 18 972 l 18 672 l 451 672 l 451 972 z m 163 600 b 468 336 178 450 314 336 b 774 600 622 336 758 450 l 774 636 l 163 636 z m 249 0 l 692 0 l 692 300 l 249 300 z m 488 672 l 918 672 l 918 972 l 488 972 z "},"y":{"ha":936,"x_min":0,"x_max":0,"o":"m 18 972 l 18 672 l 451 672 l 451 972 z m 163 600 b 468 336 178 450 314 336 b 774 600 622 336 758 450 l 774 636 l 163 636 z m 249 0 l 692 0 l 692 300 l 249 300 z m 488 672 l 918 672 l 918 972 l 488 972 z "},"Z":{"ha":864,"x_min":0,"x_max":0,"o":"m 18 972 l 18 504 l 540 504 b 846 768 694 501 831 615 l 846 972 z m 18 0 l 846 0 l 846 468 l 324 468 b 18 204 169 471 33 357 z "},"z":{"ha":864,"x_min":0,"x_max":0,"o":"m 18 972 l 18 504 l 540 504 b 846 768 694 501 831 615 l 846 972 z m 18 0 l 846 0 l 846 468 l 324 468 b 18 204 169 471 33 357 z "},"\\":{"ha":481,"x_min":0,"x_max":0,"o":"m 463 0 l 463 215 b 157 479 447 365 311 479 l 157 0 z m 18 757 b 324 493 33 607 169 493 l 324 972 l 18 972 z "},"¡":{"ha":336,"x_min":0,"x_max":0,"o":"m 18 672 l 318 672 l 318 972 l 18 972 z m 18 0 l 318 0 l 318 644 b 18 344 151 644 18 511 z "},"·":{"ha":336,"x_min":0,"x_max":0,"o":"m 18 621 l 18 321 l 318 321 l 318 621 z "},"¿":{"ha":772,"x_min":0,"x_max":0,"o":"m 624 672 l 624 972 l 324 972 l 324 672 z m 18 300 b 326 0 22 135 160 0 l 763 0 l 763 300 z m 19 336 l 317 336 b 624 636 476 336 610 476 l 326 636 b 19 336 167 636 33 496 z "},"–":{"ha":958,"x_min":0,"x_max":0,"o":"m 18 632 l 18 332 l 940 332 l 940 632 z "},"—":{"ha":1358,"x_min":0,"x_max":0,"o":"m 18 632 l 18 332 l 1340 332 l 1340 632 z "},"‘":{"ha":336,"x_min":0,"x_max":0,"o":"m 318 504 l 318 1104 b 18 804 151 1104 18 971 l 18 504 z "},"’":{"ha":336,"x_min":0,"x_max":0,"o":"m 18 972 l 18 372 b 318 672 185 372 318 506 l 318 972 z "},"“":{"ha":672,"x_min":0,"x_max":0,"o":"m 654 504 l 654 1104 b 354 804 488 1104 354 971 l 354 504 z m 18 504 l 318 504 l 318 1104 b 18 804 151 1104 18 971 z "},"”":{"ha":672,"x_min":0,"x_max":0,"o":"m 18 972 l 18 372 b 318 672 185 372 318 506 l 318 972 z m 354 372 b 654 672 521 372 654 506 l 654 972 l 354 972 z "},"„":{"ha":672,"x_min":0,"x_max":0,"o":"m 354 300 l 354 -300 b 654 0 521 -300 654 -167 l 654 300 z m 18 -300 b 318 0 185 -300 318 -167 l 318 300 l 18 300 z "},"•":{"ha":479,"x_min":0,"x_max":0,"o":"m 18 706 l 18 238 l 461 238 l 461 706 z "},"…":{"ha":1008,"x_min":0,"x_max":0,"o":"m 18 300 l 18 0 l 318 0 l 318 300 z m 354 0 l 654 0 l 654 300 l 354 300 z m 690 0 l 990 0 l 990 300 l 690 300 z "}}}
